<svg width="128" height="128" viewBox="0 0 128 128" fill="none" xmlns="http://www.w3.org/2000/svg">
<rect x="1" y="1" width="126" height="126" rx="47" fill="black"/>
<path fill-rule="evenodd" clip-rule="evenodd" d="M37.3333 60.4531C37.3333 47.6844 47.5743 37.3333 60.207 37.3333C66.2735 37.3333 72.0915 39.7692 76.3812 44.105C80.6708 48.4408 83.0808 54.3214 83.0808 60.4531C83.0808 73.2218 72.8398 83.5729 60.207 83.5729C47.5743 83.5729 37.3333 73.2218 37.3333 60.4531ZM82.7022 79.0781L89.5147 84.5771H89.6329C91.0112 85.9702 91.0112 88.2288 89.6329 89.6219C88.2547 91.0149 86.0201 91.0149 84.6419 89.6219L78.9885 83.1426C78.4541 82.6042 78.1536 81.873 78.1536 81.1103C78.1536 80.3477 78.4541 79.6164 78.9885 79.0781C80.0192 78.0543 81.6715 78.0543 82.7022 79.0781Z" fill="white"/>
<path d="M59.0755 52V70H55.6793V62.5897H50.3962V70H47V52H50.3962V59.0513H55.6793V52H59.0755Z" fill="#F0652F"/>
<path d="M74 70H70.6038L64.9235 58.8974V70H61.5273V52H64.9235L70.6038 63.1538V52H74V70Z" fill="#F0652F"/>
<rect x="1" y="1" width="126" height="126" rx="47" stroke="white" stroke-width="2"/>
</svg>
